# xmcd CD database file
#
# Track frame offsets:
#	183
#	14533
#	30245
#	42970
#	55095
#	68195
#	82895
#	104270
#	116433
#	129783
#	143670
#	155920
#	168320
#	180945
#	193958
#	206470
#	222170
#	234558
#	248783
#	264258
#	281470
#	296220
#
# Disc length: 4121 seconds
#
# Revision: 0
# Processed by: cddbd v1.4PL0 Copyright (c) Steve Scherf et al.
# Submitted via: ACXtractor (MTCDDB.DLL V2003.07.15)
#
DISCID=31101716
DTITLE=Nat King Cole  - The Wonderful World Of~ [CD1of1]
DYEAR=1991
DGENRE=Easy Listening
TTITLE0=When I Fall In Love
TTITLE1=Unforgettable
TTITLE2=Love Is Here To Stay
TTITLE3=Autumn Leaves
TTITLE4=Smile
TTITLE5=Stardust
TTITLE6=A Nightingale Sang In Berkely Square
TTITLE7=Love Is A Many Spendored Thing
TTITLE8=Tenderley
TTITLE9=Blue Gardenia
TTITLE10=Walkin´ My Baby Back Home
TTITLE11=Love Letters
TTITLE12=Let´s Fall In Love
TTITLE13=There Goes My Heart
TTITLE14=Let There Be Love
TTITLE15=The More I See You
TTITLE16=When You´re Smiling
TTITLE17=Dear Lonely Hearts
TTITLE18=Too Young
TTITLE19=The Very Thought Of You
TTITLE20=For All We Know
TTITLE21=Darling Je Vous Aime Beaucoup
EXTD=22 Love Songs\n ID3G:  17 YEAR: 1991
EXTT0=The Wonderful World Of~ [CD1of1]
EXTT1=The Wonderful World Of~ [CD1of1]
EXTT2=The Wonderful World Of~ [CD1of1]
EXTT3=The Wonderful World Of~ [CD1of1]
EXTT4=The Wonderful World Of~ [CD1of1]
EXTT5=The Wonderful World Of~ [CD1of1]
EXTT6=The Wonderful World Of~ [CD1of1]
EXTT7=The Wonderful World Of~ [CD1of1]
EXTT8=The Wonderful World Of~ [CD1of1]
EXTT9=The Wonderful World Of~ [CD1of1]
EXTT10=The Wonderful World Of~ [CD1of1]
EXTT11=The Wonderful World Of~ [CD1of1]
EXTT12=The Wonderful World Of~ [CD1of1]
EXTT13=The Wonderful World Of~ [CD1of1]
EXTT14=The Wonderful World Of~ [CD1of1]
EXTT15=The Wonderful World Of~ [CD1of1]
EXTT16=The Wonderful World Of~ [CD1of1]
EXTT17=The Wonderful World Of~ [CD1of1]
EXTT18=The Wonderful World Of~ [CD1of1]
EXTT19=The Wonderful World Of~ [CD1of1]
EXTT20=The Wonderful World Of~ [CD1of1]
EXTT21=The Wonderful World Of~ [CD1of1]
PLAYORDER=
